<svg width="135" height="135" viewBox="0 0 135 135" fill="none" xmlns="http://www.w3.org/2000/svg">
<path d="M67.5 33.75C62.5364 33.75 58.5001 37.7866 58.5001 42.7499C58.5001 47.7133 62.5367 51.7498 67.5 51.7498C72.4637 51.7498 76.4999 47.7133 76.4999 42.7499C76.4999 37.7866 72.4637 33.75 67.5 33.75ZM67.5 47.25C65.0184 47.25 62.9999 45.2319 62.9999 42.7499C62.9999 40.2682 65.0181 38.2498 67.5 38.2498C69.9817 38.2498 72.0001 40.268 72.0001 42.7499C72.0001 45.2319 69.9817 47.25 67.5 47.25Z" fill="black"/>
<path d="M71.1922 56.2499H63.8054C58.3986 56.2499 54 60.6487 54 66.0553V69.7499C54 70.9942 55.008 71.9998 56.2499 71.9998H78.7498C79.9917 71.9998 80.9998 70.9942 80.9998 69.7499V66.0553C81 60.6487 76.5991 56.2499 71.1922 56.2499ZM76.4999 67.5H58.4998V66.0556C58.4998 63.1307 60.8803 60.75 63.8054 60.75H71.1922C74.1195 60.75 76.4999 63.1283 76.4999 66.0556V67.5Z" fill="black"/>
<path d="M124.875 0H10.125C4.5428 0 0 4.5428 0 10.125V124.875C0 130.457 4.5428 135 10.125 135H124.875C130.457 135 135 130.457 135 124.875V10.125C135 4.5428 130.457 0 124.875 0ZM130.5 124.875C130.5 127.978 127.978 130.5 124.875 130.5H10.125C7.02448 130.5 4.50009 127.978 4.50009 124.875V10.125C4.50009 7.02211 7.02237 4.50009 10.125 4.50009H124.875C127.976 4.50009 130.5 7.02237 130.5 10.125V124.875Z" fill="black"/>
<path d="M20.2501 8.99988H11.2502C10.0083 8.99988 9.00024 10.0055 9.00024 11.2498V20.25C9.00024 21.4942 10.0083 22.4999 11.2502 22.4999H20.2501C21.492 22.4999 22.5 21.4942 22.5 20.25V11.2501C22.5 10.0058 21.492 8.99988 20.2501 8.99988ZM18.0002 18.0001H13.5001V13.5H18.0002V18.0001Z" fill="black"/>
<path d="M38.2501 8.99988H29.2502C28.0083 8.99988 27.0002 10.0055 27.0002 11.2498V20.25C27.0002 21.4942 28.0083 22.4999 29.2502 22.4999H38.2501C39.492 22.4999 40.5 21.4942 40.5 20.25V11.2501C40.5 10.0058 39.492 8.99988 38.2501 8.99988ZM35.9999 18.0001H31.4998V13.5H35.9999V18.0001Z" fill="black"/>
<path d="M124.875 0H10.125C4.5428 0 0 4.5428 0 10.125V29.2499C0 30.4942 1.00802 31.4998 2.24991 31.4998H132.75C133.992 31.4998 135 30.4942 135 29.2499V10.125C135 4.5428 130.457 0 124.875 0ZM130.5 27H4.50009V10.125C4.50009 7.02211 7.02237 4.50009 10.125 4.50009H124.875C127.976 4.50009 130.5 7.02237 130.5 10.125V27Z" fill="black"/>
<path d="M101.25 76.4999H33.75C32.5081 76.4999 31.5001 77.5055 31.5001 78.7498V87.75C31.5001 88.9942 32.5081 89.9999 33.75 89.9999H101.25C102.492 89.9999 103.5 88.9942 103.5 87.75V78.7501C103.5 77.5058 102.492 76.4999 101.25 76.4999ZM99.0001 85.5001H35.9999V81H98.9999V85.5001H99.0001Z" fill="black"/>
<path d="M62.9999 94.5001H33.75C32.5081 94.5001 31.5001 95.5057 31.5001 96.75V105.75C31.5001 106.994 32.5081 108 33.75 108H62.9999C64.2418 108 65.2499 106.994 65.2499 105.75V96.75C65.2501 95.5057 64.2421 94.5001 62.9999 94.5001ZM60.75 103.5H35.9999V98.9999H60.75V103.5Z" fill="black"/>
<path d="M101.25 94.5001H72C70.7581 94.5001 69.7501 95.5057 69.7501 96.75V105.75C69.7501 106.994 70.7581 108 72 108H101.25C102.492 108 103.5 106.994 103.5 105.75V96.75C103.5 95.5057 102.492 94.5001 101.25 94.5001ZM99 103.5H74.2499V98.9999H99V103.5Z" fill="black"/>
</svg>
