<svg width="135" height="135" viewBox="0 0 135 135" fill="none" xmlns="http://www.w3.org/2000/svg">
<path d="M124.875 0H10.125C4.5428 0 0 4.5428 0 10.125V124.875C0 130.457 4.5428 135 10.125 135H124.875C130.457 135 135 130.457 135 124.875V10.125C135 4.5428 130.457 0 124.875 0ZM130.5 124.875C130.5 127.978 127.978 130.5 124.875 130.5H10.125C7.02448 130.5 4.50009 127.978 4.50009 124.875V10.125C4.50009 7.02211 7.02448 4.50009 10.125 4.50009H124.875C127.976 4.50009 130.5 7.02237 130.5 10.125V124.875Z" fill="black"/>
<path d="M20.2499 8.99988H11.25C10.0081 8.99988 9.00012 10.0055 9.00012 11.2498V20.25C9.00012 21.4942 10.0081 22.4999 11.25 22.4999H20.2499C21.4918 22.4999 22.4999 21.4942 22.4999 20.25V11.2501C22.4999 10.0058 21.4918 8.99988 20.2499 8.99988ZM18 18.0001H13.4999V13.5H18V18.0001Z" fill="black"/>
<path d="M38.2501 8.99988H29.2502C28.0083 8.99988 27.0002 10.0055 27.0002 11.2498V20.25C27.0002 21.4942 28.0083 22.4999 29.2502 22.4999H38.2501C39.492 22.4999 40.5 21.4942 40.5 20.25V11.2501C40.5 10.0058 39.492 8.99988 38.2501 8.99988ZM35.9999 18.0001H31.4998V13.5H35.9999V18.0001Z" fill="black"/>
<path d="M124.875 0H10.125C4.5428 0 0 4.5428 0 10.125V29.2499C0 30.4942 1.00802 31.4998 2.24991 31.4998H132.75C133.992 31.4998 135 30.4942 135 29.2499V10.125C135 4.5428 130.457 0 124.875 0ZM130.5 27H4.50009V10.125C4.50009 7.02211 7.02448 4.50009 10.125 4.50009H124.875C127.976 4.50009 130.5 7.02237 130.5 10.125V27Z" fill="black"/>
<path d="M81 58.5001H54C52.7581 58.5001 51.7501 59.5058 51.7501 60.75C51.7501 61.9943 52.7581 62.9999 54 62.9999H81C82.2419 62.9999 83.25 61.9943 83.25 60.75C83.25 59.5058 82.2419 58.5001 81 58.5001Z" fill="black"/>
<path d="M78.7501 67.5H54C52.7581 67.5 51.7501 68.5056 51.7501 69.7499C51.7501 70.9942 52.7581 71.9998 54 71.9998H78.7501C79.992 71.9998 81 70.9942 81 69.7499C81 68.5056 79.992 67.5 78.7501 67.5Z" fill="black"/>
<path d="M121.5 58.5001H94.5C93.2581 58.5001 92.2501 59.5058 92.2501 60.75C92.2501 61.9943 93.2581 62.9999 94.5 62.9999H121.5C122.742 62.9999 123.75 61.9943 123.75 60.75C123.75 59.5058 122.742 58.5001 121.5 58.5001Z" fill="black"/>
<path d="M119.25 67.5H94.5C93.2581 67.5 92.2501 68.5056 92.2501 69.7499C92.2501 70.9942 93.2581 71.9998 94.5 71.9998H119.25C120.492 71.9998 121.5 70.9942 121.5 69.7499C121.5 68.5056 120.492 67.5 119.25 67.5Z" fill="black"/>
<path d="M112.5 76.4999H94.5C93.2581 76.4999 92.2501 77.5055 92.2501 78.7498C92.2501 79.9941 93.2581 80.9997 94.5 80.9997H112.5C113.742 80.9997 114.75 79.9941 114.75 78.7498C114.75 77.5055 113.742 76.4999 112.5 76.4999Z" fill="black"/>
<path d="M40.5 58.5001H13.5C12.2581 58.5001 11.2501 59.5058 11.2501 60.75C11.2501 61.9943 12.2581 62.9999 13.5 62.9999H40.5C41.7419 62.9999 42.7499 61.9943 42.7499 60.75C42.7499 59.5058 41.7419 58.5001 40.5 58.5001Z" fill="black"/>
<path d="M81 49.5H54C52.7581 49.5 51.7501 50.5056 51.7501 51.7499C51.7501 52.9941 52.7581 53.9998 54 53.9998H81C82.2419 53.9998 83.25 52.9941 83.25 51.7499C83.25 50.5056 82.2419 49.5 81 49.5Z" fill="black"/>
<path d="M121.5 49.5H94.5C93.2581 49.5 92.2501 50.5056 92.2501 51.7499C92.2501 52.9941 93.2581 53.9998 94.5 53.9998H121.5C122.742 53.9998 123.75 52.9941 123.75 51.7499C123.75 50.5056 122.742 49.5 121.5 49.5Z" fill="black"/>
<path d="M40.5 49.5H13.5C12.2581 49.5 11.2501 50.5056 11.2501 51.7499C11.2501 52.9941 12.2581 54.0001 13.5 54.0001H40.5C41.7419 54.0001 42.7499 52.9944 42.7499 51.7501C42.7499 50.5059 41.7419 49.5 40.5 49.5Z" fill="black"/>
<path d="M81 40.5H54C52.7581 40.5 51.7501 41.5057 51.7501 42.7499C51.7501 43.9942 52.7581 44.9999 54 44.9999H81C82.2419 44.9999 83.25 43.9942 83.25 42.7499C83.25 41.5057 82.2419 40.5 81 40.5Z" fill="black"/>
<path d="M121.5 40.5H94.5C93.2581 40.5 92.2501 41.5057 92.2501 42.7499C92.2501 43.9942 93.2581 44.9999 94.5 44.9999H121.5C122.742 44.9999 123.75 43.9942 123.75 42.7499C123.75 41.5057 122.742 40.5 121.5 40.5Z" fill="black"/>
<path d="M40.5 40.5H13.5C12.2581 40.5 11.2501 41.5057 11.2501 42.7499C11.2501 43.9942 12.2581 44.9999 13.5 44.9999H40.5C41.7419 44.9999 42.7499 43.9942 42.7499 42.7499C42.7499 41.5057 41.7419 40.5 40.5 40.5Z" fill="black"/>
<path d="M38.2501 67.5H13.5C12.2581 67.5 11.2501 68.5056 11.2501 69.7499C11.2501 70.9942 12.2581 71.9998 13.5 71.9998H38.2501C39.492 71.9998 40.5 70.9942 40.5 69.7499C40.5 68.5056 39.492 67.5 38.2501 67.5Z" fill="black"/>
<path d="M31.5001 76.4999H13.5C12.2581 76.4999 11.2501 77.5055 11.2501 78.7498C11.2501 79.9941 12.2581 81 13.5 81H31.5001C32.742 81 33.75 79.9943 33.75 78.7501C33.75 77.5058 32.742 76.4999 31.5001 76.4999Z" fill="black"/>
<path d="M123.75 87.7499H11.25C10.0081 87.7499 9.00012 88.7556 9.00012 89.9999V123.75C9.00012 124.994 10.0081 126 11.25 126H123.75C124.992 126 126 124.994 126 123.75V89.9999C126 88.7556 124.992 87.7499 123.75 87.7499ZM121.5 121.5H13.4999V92.25H121.5V121.5Z" fill="black"/>
<path d="M65.2501 101.25H22.4999C21.258 101.25 20.25 102.256 20.25 103.5C20.25 104.744 21.258 105.75 22.4999 105.75H65.2498C66.4917 105.75 67.4997 104.744 67.4997 103.5C67.5 102.256 66.492 101.25 65.2501 101.25Z" fill="black"/>
<path d="M76.4999 110.25H22.4999C21.258 110.25 20.25 111.256 20.25 112.5C20.25 113.744 21.258 114.75 22.4999 114.75H76.4999C77.7418 114.75 78.7498 113.744 78.7498 112.5C78.7498 111.256 77.7421 110.25 76.4999 110.25Z" fill="black"/>
<path d="M108 101.25H94.5C90.7785 101.25 87.75 104.279 87.75 108C87.75 111.721 90.7785 114.75 94.5 114.75H108C111.721 114.75 114.75 111.721 114.75 108C114.75 104.279 111.721 101.25 108 101.25ZM108 110.25H94.5C93.2581 110.25 92.2501 109.242 92.2501 108C92.2501 106.758 93.2581 105.75 94.5 105.75H108C109.242 105.75 110.25 106.758 110.25 108C110.25 109.242 109.242 110.25 108 110.25Z" fill="black"/>
</svg>
